<?xml version="1.0" standalone="no"?>
<!DOCTYPE svg PUBLIC "-//W3C//DTD SVG 20010904//EN"
 "http://www.w3.org/TR/2001/REC-SVG-20010904/DTD/svg10.dtd">
<svg version="1.0" xmlns="http://www.w3.org/2000/svg"
 width="366.000000pt" height="366.000000pt" viewBox="0 0 366.000000 366.000000"
 preserveAspectRatio="xMidYMid meet">
<metadata>
Created by potrace 1.11, written by Peter Selinger 2001-2013
</metadata>
<g transform="translate(0.000000,366.000000) scale(0.100000,-0.100000)"
fill="#000000" stroke="none">
<path d="M1581 3594 c-270 -39 -516 -135 -757 -295 -151 -100 -363 -312 -463
-463 -371 -558 -414 -1223 -118 -1812 86 -171 179 -298 331 -450 194 -193 378
-314 628 -410 391 -151 865 -151 1256 0 250 96 434 217 628 410 193 194 314
378 410 628 151 391 151 865 0 1256 -96 250 -217 434 -410 628 -194 193 -378
314 -628 410 -261 101 -599 139 -877 98z m403 -54 c292 -28 558 -123 806 -287
160 -106 357 -303 463 -463 219 -330 321 -717 288 -1092 -26 -306 -119 -573
-288 -828 -106 -160 -303 -357 -463 -463 -592 -392 -1328 -392 -1920 0 -160
106 -357 303 -463 463 -392 592 -392 1328 0 1920 106 160 303 357 463 463 339
224 725 324 1114 287z"/>
<path d="M1753 3318 c4 -18 7 -99 8 -180 2 -82 6 -148 11 -148 10 0 10 62 1
233 -3 70 -10 127 -16 127 -5 0 -7 -14 -4 -32z"/>
<path d="M1825 3187 c-8 -183 -3 -250 9 -111 l8 90 54 -4 c36 -3 54 -1 54 7 0
7 -20 11 -50 11 -61 0 -65 7 -55 95 l7 65 54 -6 c37 -5 54 -3 54 5 0 7 -23 11
-64 11 l-64 0 -7 -163z"/>
<path d="M1660 3325 c0 -12 7 -71 16 -133 8 -62 14 -118 12 -123 -2 -6 -37 48
-77 120 -81 145 -97 165 -88 105 3 -21 14 -103 23 -181 10 -79 22 -143 26
-143 11 0 10 9 -8 138 -8 62 -14 119 -12 128 2 8 36 -44 77 -116 71 -127 98
-158 87 -102 -3 15 -13 88 -22 162 -15 124 -33 199 -34 145z"/>
<path d="M2061 3313 c-40 -33 -79 -295 -48 -321 35 -30 99 -25 117 8 14 27 50
205 50 249 0 42 -7 54 -37 70 -31 16 -57 14 -82 -6z m88 -22 c22 -22 22 -27
-4 -166 -9 -49 -23 -100 -31 -112 -20 -32 -68 -31 -90 2 -15 23 -15 32 4 136
12 61 28 122 37 135 19 29 58 31 84 5z"/>
<path d="M1408 3193 c1 -60 3 -132 5 -161 1 -28 0 -52 -3 -52 -3 0 -43 59 -90
130 -76 117 -100 146 -100 123 0 -12 100 -327 105 -332 16 -16 10 20 -24 127
-21 67 -36 120 -32 117 5 -2 39 -52 77 -109 38 -58 73 -106 77 -106 5 0 7 63
5 139 -2 77 -1 137 1 135 3 -2 21 -57 42 -121 20 -65 41 -119 47 -121 6 -2 -6
48 -25 110 -20 62 -43 137 -52 167 -26 86 -36 72 -33 -46z"/>
<path d="M2282 3250 c-22 -24 -92 -223 -92 -262 0 -32 41 -68 77 -68 40 0 68
40 107 156 20 60 36 117 36 127 0 10 -11 29 -25 42 -30 31 -77 33 -103 5z m92
-16 c9 -8 16 -25 16 -37 0 -31 -68 -219 -87 -239 -32 -36 -93 -12 -93 35 0 28
59 205 78 235 17 26 63 30 86 6z"/>
<path d="M2431 3048 c-46 -87 -81 -161 -80 -162 17 -15 74 -36 97 -36 38 0 61
26 116 137 65 131 62 165 -19 206 l-30 15 -84 -160z m138 106 c17 -14 31 -32
31 -40 0 -25 -97 -208 -123 -232 -23 -22 -26 -23 -61 -8 -20 8 -36 20 -36 27
0 18 140 279 150 279 5 0 22 -12 39 -26z"/>
<path d="M1040 3145 c-32 -34 -24 -72 42 -192 61 -112 87 -134 136 -114 17 7
35 25 42 42 12 27 8 38 -39 137 -29 59 -62 117 -73 130 -29 30 -78 29 -108 -3z
m157 -121 c51 -100 56 -115 45 -138 -15 -34 -56 -44 -82 -21 -31 28 -120 202
-120 235 0 22 7 33 27 44 46 24 67 4 130 -120z"/>
<path d="M2363 2613 c-85 -99 -213 -258 -266 -332 -65 -90 -73 -118 -52 -185
l17 -53 -114 -166 c-62 -92 -116 -165 -120 -164 -4 1 -57 74 -118 162 -75 109
-109 166 -106 180 3 11 9 39 15 63 28 109 -30 255 -149 372 -112 111 -234 174
-303 156 -81 -20 -74 -203 14 -383 73 -148 195 -244 314 -249 l60 -3 113 -158
c63 -87 118 -165 123 -174 6 -13 -15 -48 -87 -145 -134 -180 -170 -221 -300
-335 -63 -55 -121 -114 -129 -130 -17 -32 -13 -84 12 -131 12 -26 18 -28 75
-28 56 0 63 3 92 33 20 22 48 78 80 163 26 71 62 154 79 184 44 79 208 330
216 330 7 0 143 -208 200 -306 22 -39 59 -120 82 -180 75 -199 95 -224 189
-224 42 0 52 4 67 26 9 14 19 50 21 80 l5 55 -79 72 c-165 151 -253 247 -352
378 -56 75 -102 140 -102 144 0 9 86 133 182 263 l68 92 51 0 c65 0 80 9 128
74 59 79 283 455 279 468 -2 5 -73 -87 -157 -206 -84 -119 -157 -219 -163
-222 -5 -4 -14 -2 -20 4 -6 6 42 85 144 234 180 262 171 248 161 248 -4 -1
-80 -102 -168 -225 -88 -124 -165 -225 -172 -225 -6 0 -14 4 -17 8 -3 5 67
114 154 242 88 128 158 236 155 238 -3 3 -6 3 -8 1 -2 -2 -77 -106 -167 -232
-147 -205 -187 -249 -184 -206 1 8 66 109 146 224 79 116 148 216 152 223 17
29 -7 7 -61 -55z"/>
<path d="M652 1062 c-61 -41 -110 -77 -107 -80 2 -2 27 10 56 29 l52 33 19
-27 c24 -33 64 -36 102 -6 31 24 34 62 8 100 l-17 26 -113 -75z m133 14 c8
-25 6 -31 -18 -52 -16 -13 -34 -24 -42 -24 -14 0 -55 38 -55 51 0 11 74 58 90
56 8 -1 19 -15 25 -31z"/>
<path d="M2891 1122 c-1 -7 10 -35 24 -62 14 -27 25 -52 25 -56 0 -3 -33 -3
-72 0 -47 3 -64 2 -48 -3 14 -5 48 -9 76 -10 42 -1 60 -8 108 -41 59 -42 66
-45 66 -32 0 4 -24 22 -54 41 -44 29 -60 47 -89 105 -20 39 -36 65 -36 58z"/>
<path d="M732 944 c-57 -48 -100 -89 -97 -92 3 -3 18 6 33 19 57 52 61 53 82
34 29 -26 25 -50 -15 -86 -19 -18 -35 -37 -35 -43 0 -15 71 56 81 82 5 12 17
22 27 22 11 0 31 9 46 21 33 26 34 64 3 101 l-22 28 -103 -86z m138 6 c0 -21
-45 -60 -68 -60 -19 0 -52 29 -52 44 1 6 20 26 43 43 l42 33 18 -21 c9 -12 17
-29 17 -39z"/>
<path d="M1565 998 c-3 -7 -4 -40 -2 -73 2 -58 3 -60 30 -61 25 -1 25 -1 2 3
-20 3 -25 10 -25 33 0 24 5 29 28 33 l27 4 -27 2 c-24 1 -28 5 -28 30 0 25 5
30 28 34 l27 4 -28 2 c-15 0 -30 -5 -32 -11z"/>
<path d="M1642 998 c-19 -19 -14 -46 13 -64 26 -17 33 -48 13 -60 -6 -4 -17 1
-25 11 -7 11 -13 14 -13 8 0 -17 26 -34 44 -27 25 10 20 51 -9 70 -26 17 -33
48 -13 60 6 4 17 -1 25 -11 11 -16 13 -16 13 -3 0 9 -7 19 -16 22 -20 8 -18 8
-32 -6z"/>
<path d="M1718 1003 c12 -2 30 -2 40 0 9 3 -1 5 -23 4 -22 0 -30 -2 -17 -4z"/>
<path d="M1863 1003 c-7 -2 -13 -12 -13 -21 0 -13 3 -12 15 4 13 16 16 17 26
4 9 -12 10 -12 7 -1 -5 17 -17 22 -35 14z"/>
<path d="M1924 997 c-3 -8 -4 -41 -2 -73 3 -50 6 -59 22 -59 11 0 21 7 23 15
4 12 3 13 -5 1 -18 -25 -32 -1 -32 54 0 55 14 79 32 54 8 -12 9 -11 5 1 -5 20
-36 25 -43 7z"/>
<path d="M2000 995 c-8 -10 -9 -15 -2 -15 6 0 13 -25 15 -57 3 -56 3 -55 5 15
1 39 0 72 -2 72 -2 0 -9 -7 -16 -15z"/>
<path d="M2051 960 c-13 -23 -21 -44 -18 -46 3 -3 8 4 12 15 3 12 13 28 21 36
9 8 14 20 12 26 -2 6 -14 -8 -27 -31z"/>
<path d="M2750 944 c-17 -15 -30 -30 -28 -34 5 -14 189 -172 194 -167 3 2 -13
20 -36 39 -46 40 -49 51 -18 72 31 22 42 20 83 -15 20 -18 38 -29 41 -27 10
10 -68 68 -91 68 -18 0 -25 5 -25 19 0 21 -53 71 -75 71 -7 0 -27 -12 -45 -26z
m70 1 c37 -19 47 -55 25 -89 l-17 -26 -44 36 c-24 20 -44 39 -44 42 0 6 41 52
47 52 2 0 17 -7 33 -15z"/>
<path d="M1872 926 c-31 -45 -29 -66 6 -65 23 2 24 2 5 6 -29 5 -29 23 -2 57
12 15 20 29 17 31 -2 2 -13 -11 -26 -29z"/>
<path d="M830 825 l-94 -95 29 -30 c16 -16 33 -30 39 -30 5 0 -4 15 -22 33
l-32 33 43 42 43 42 32 -30 32 -30 -30 32 -30 32 42 43 42 43 36 -33 35 -32
-34 38 c-19 20 -35 37 -36 37 0 0 -43 -43 -95 -95z"/>
<path d="M2670 855 l-33 -35 89 -93 89 -93 38 29 c21 16 35 32 32 35 -3 3 -19
-7 -35 -23 l-30 -29 -43 42 -42 43 33 30 c18 16 29 29 25 29 -4 0 -19 -12 -34
-26 l-27 -26 -40 44 -41 43 32 33 c17 17 29 32 26 32 -3 0 -20 -16 -39 -35z"/>
<path d="M917 739 c-43 -55 -77 -105 -75 -109 2 -5 28 25 58 65 30 41 58 74
62 75 3 0 -9 -39 -28 -86 -19 -47 -34 -90 -32 -95 2 -6 37 15 77 46 41 30 76
55 78 55 7 0 -9 -23 -61 -89 -27 -35 -44 -62 -37 -60 19 7 175 209 161 209 -6
0 -49 -29 -97 -65 -47 -36 -90 -65 -94 -65 -4 0 4 28 18 63 53 131 62 157 55
157 -4 0 -42 -46 -85 -101z"/>
<path d="M2620 808 c0 -9 18 -58 40 -109 22 -51 38 -94 36 -96 -1 -2 -43 28
-91 67 -48 39 -90 68 -93 65 -3 -3 -3 -6 -1 -8 2 -2 50 -41 107 -87 56 -45
105 -81 107 -78 3 3 -20 63 -50 134 -30 71 -55 121 -55 112z"/>
<path d="M1114 673 c-21 -32 -53 -82 -71 -111 -19 -30 -32 -56 -29 -59 5 -5
132 185 143 214 12 30 -9 9 -43 -44z"/>
<path d="M2489 703 c31 -56 141 -216 141 -206 0 16 -131 223 -142 223 -5 0 -4
-8 1 -17z"/>
<path d="M1173 698 c-6 -7 -32 -54 -58 -105 -33 -65 -45 -97 -40 -113 8 -26
50 -44 73 -31 19 10 125 197 120 212 -2 5 -28 -37 -59 -93 -52 -93 -60 -103
-85 -103 -47 0 -43 37 16 144 29 51 50 95 47 97 -2 3 -9 -1 -14 -8z"/>
<path d="M2380 657 c0 -6 114 -221 125 -235 1 -1 23 10 49 24 57 32 55 44 -2
15 l-41 -21 -50 93 c-51 93 -80 139 -81 124z"/>
<path d="M1246 524 c-26 -69 -45 -128 -42 -131 3 -3 10 7 16 23 40 108 56 144
63 144 5 0 6 -8 3 -17 -10 -37 -17 -173 -9 -173 4 0 32 34 62 75 30 41 56 73
58 71 2 -2 -10 -38 -27 -81 -17 -43 -29 -83 -27 -89 2 -6 25 45 51 112 27 68
46 125 43 128 -3 3 -36 -35 -73 -85 -38 -49 -71 -90 -74 -91 -3 0 -1 52 5 116
6 63 8 117 5 119 -3 2 -27 -53 -54 -121z"/>
<path d="M2312 630 l-42 -19 26 -58 c14 -32 37 -86 52 -120 28 -69 37 -74 92
-42 27 15 29 19 10 14 -14 -4 -34 -9 -45 -12 -16 -3 -25 5 -43 42 -13 26 -22
49 -20 50 2 1 21 12 43 23 22 12 34 21 27 22 -7 0 -27 -7 -43 -16 -17 -8 -32
-14 -34 -12 -4 4 -45 98 -45 103 0 2 16 9 35 15 19 6 35 16 35 21 0 11 3 12
-48 -11z"/>
<path d="M2171 579 c-15 -6 -22 -15 -18 -27 2 -9 20 -66 38 -125 l33 -109 30
6 c42 9 56 24 56 60 0 36 -43 170 -61 192 -13 16 -43 17 -78 3z m59 -9 c21
-11 73 -157 68 -192 -3 -23 -47 -53 -60 -40 -3 4 -22 56 -41 115 l-35 108 21
9 c29 11 26 11 47 0z"/>
<path d="M1521 435 c-13 -69 -21 -129 -18 -131 3 -3 8 8 11 25 3 17 9 45 12
61 6 30 7 31 52 26 l47 -5 -44 11 -43 11 7 51 c3 27 8 53 11 57 2 4 21 3 41
-1 21 -5 39 -7 42 -4 8 8 -3 12 -50 19 l-45 7 -23 -127z"/>
<path d="M1675 520 c-14 -15 -19 -42 -23 -120 -5 -111 2 -130 49 -130 43 0 57
31 65 141 6 93 6 97 -17 113 -31 21 -52 20 -74 -4z m76 -21 c13 -25 1 -167
-17 -196 -17 -27 -46 -30 -64 -8 -10 12 -11 40 -7 108 6 76 10 95 27 109 24
19 46 14 61 -13z"/>
<path d="M1940 528 c0 -7 7 -69 16 -137 l17 -123 35 6 c62 10 67 22 55 130
-15 124 -22 136 -78 136 -29 0 -45 -4 -45 -12z m83 -13 c19 -19 43 -183 30
-204 -13 -20 -63 -33 -68 -18 -9 24 -33 221 -29 229 8 13 52 9 67 -7z"/>
<path d="M1809 509 c-6 -13 -10 -59 -7 -121 2 -85 6 -102 22 -114 28 -20 53
-17 77 7 20 20 21 28 14 123 -4 55 -11 107 -17 114 -18 21 -76 15 -89 -9z m71
1 c17 -11 33 -171 20 -206 -18 -47 -73 -37 -84 17 -12 63 -7 167 10 183 18 18
32 20 54 6z"/>
</g>
</svg>
